<svg xmlns="http://www.w3.org/2000/svg" width="24" height="24" viewBox="0 0 24 24" id="calendar-date-end"><path d="M18,4.25h-1.25v-1.25c0-.41406-.33594-.75-.75-.75s-.75.33594-.75.75v1.25h-6.5v-1.25c0-.41406-.33594-.75-.75-.75s-.75.33594-.75.75v1.25h-1.25c-2.06787,0-3.75,1.68213-3.75,3.75v10c0,2.06787,1.68213,3.75,3.75,3.75h12c2.06787,0,3.75-1.68213,3.75-3.75v-10c0-2.06787-1.68213-3.75-3.75-3.75ZM20.25,18c0,1.24072-1.00928,2.25-2.25,2.25H6c-1.24072,0-2.25-1.00928-2.25-2.25v-6.25h16.5v6.25ZM20.25,10.25H3.75v-2.25c0-1.24072,1.00928-2.25,2.25-2.25h1.25v1.25c0,.41406.33594.75.75.75s.75-.33594.75-.75v-1.25h6.5v1.25c0,.41406.33594.75.75.75s.75-.33594.75-.75v-1.25h1.25c1.24072,0,2.25,1.00928,2.25,2.25v2.25ZM17,18.5v-1c0-.27618.22388-.5.5-.5h1c.27612,0,.5.22382.5.5v1c0,.27612-.22388.5-.5.5h-1c-.27612,0-.5-.22388-.5-.5Z"></path></svg>