<svg xmlns="http://www.w3.org/2000/svg" width="96" height="96" fill="none" viewBox="0 0 96 96" id="list"><path stroke="#12182B" stroke-width="5" d="M19 19C19 14.0294 23.0294 10 28 10H58.0785C59.9108 10 61.6701 10.7184 62.9786 12.0011L72.0509 20.8939L75.1244 24.1967C76.3299 25.4921 77 27.1959 77 28.9654V77C77 81.9706 72.9706 86 68 86H28C23.0294 86 19 81.9706 19 77V19Z"></path><path stroke="#12182B" stroke-width="5" d="M60 11V25C60 26.6569 61.3431 28 63 28H77"></path><path stroke="#12182B" stroke-linecap="round" stroke-width="5" d="M47 44H66M47 56H66M47 68H66M29 41.9388C29.3967 42.3382 30.3056 43.2533 31.331 44.2856 31.7221 44.6794 32.359 44.6794 32.75 44.2857L38 39M29 53.9388C29.3967 54.3382 30.3056 55.2533 31.331 56.2856 31.7221 56.6794 32.359 56.6794 32.75 56.2857L38 51M29 65.9388C29.3967 66.3382 30.3056 67.2533 31.331 68.2856 31.7221 68.6794 32.359 68.6794 32.75 68.2857L38 63"></path></svg>