<svg xmlns="http://www.w3.org/2000/svg" enable-background="new 0 0 2000 2000" viewBox="0 0 2000 2000" id="notification"><path fill="#11133b" d="M944.55 554.75c1.11-.16 2.22-.32 3.33-.47.48-.07.96-.13 1.45-.19.92-.12 1.84-.24 2.76-.36.58-.07 1.15-.15 1.73-.21.79-.1 1.59-.19 2.38-.28 3.04-.35 6.09-.66 9.14-.94.17-.02.34-.03.52-.05 1.19-.11 2.38-.21 3.56-.3.07-.01.14-.01.22-.02 10.09-.8 20.23-1.21 30.37-1.21 10.01 0 20.02.4 29.98 1.18.37.03.75.06 1.12.09.91.07 1.81.15 2.72.23.72.06 1.45.13 2.17.2.62.06 1.23.11 1.85.17 1.45.14 2.89.29 4.33.45.03 0 .07.01.1.01 1.49.17 2.98.34 4.47.52.09.01.18.02.27.03 4.57.56 9.13 1.2 13.66 1.93v-24.92c0-16.2-6.31-31.44-17.77-42.9-11.46-11.46-26.7-17.77-42.9-17.77-33.45 0-60.67 27.21-60.67 60.67v24.92c1.44-.23 2.88-.45 4.32-.66C943.95 554.84 944.25 554.8 944.55 554.75zM737.75 1193.94h157.95 73.74 386.94V930.28c0-71.42-21.05-140.32-60.86-199.25-38.87-57.53-93.09-102.18-156.81-129.13-22.09-9.34-45.21-16.45-68.72-21.13-.79-.16-1.59-.31-2.38-.46-22.14-4.25-44.87-6.41-67.61-6.41-23.56 0-47.11 2.31-69.99 6.87l-1.25.25c-39.75 8.06-77.56 22.78-112.39 43.76-34.5 20.78-65.05 47.06-90.81 78.11-25.96 31.3-46.21 66.43-60.17 104.42-14.45 39.31-21.78 80.69-21.78 122.97v263.67h59.74H737.75zM895.69 1425.73c0 57.51 46.79 104.31 104.31 104.31s104.31-46.79 104.31-104.31v-28.97H895.69V1425.73zM1403.59 1227.55c-17.48-10.01-35.59-10.42-35.77-10.42H969.43h-73.74H737.75h-34.4-60.63v0l-11.06-.01c0 .01-.08.01-.21.01-2.71 0-29.4.49-48.38 19.02-13.65 13.34-20.58 33.26-20.58 59.21 0 43.14 35.09 78.23 78.23 78.23h231.8 254.97 231.79c43.14 0 78.23-35.09 78.23-78.23C1437.5 1263.25 1426.09 1240.44 1403.59 1227.55z"></path></svg>