<svg xmlns="http://www.w3.org/2000/svg" width="96" height="96" fill="none" viewBox="0 0 96 96" id="calendar"><path stroke="#000" stroke-width="5" d="M10 29C10 20.7157 16.7157 14 25 14H70C78.2843 14 85 20.7157 85 29V71C85 79.2843 78.2843 86 70 86H25C16.7157 86 10 79.2843 10 71V29Z"></path><path stroke="#000" stroke-linecap="round" stroke-width="5" d="M11 35L85 35M30 9L30 19M66 9L66 19M43.5 53.9483L47.7411 49.7071C48.3711 49.0772 49.4482 49.5233 49.4482 50.4142V71M49.4482 71H45.5172M49.4482 71H53.5"></path></svg>