<svg xmlns="http://www.w3.org/2000/svg" width="24" height="24" viewBox="0 0 24 24" id="calendar-exclamation-mark"><path d="M18,4.25h-1.25v-1.25c0-.41406-.33594-.75-.75-.75s-.75.33594-.75.75v1.25h-6.5v-1.25c0-.41406-.33594-.75-.75-.75s-.75.33594-.75.75v1.25h-1.25c-2.06787,0-3.75,1.68213-3.75,3.75v10c0,2.06787,1.68213,3.75,3.75,3.75h12c2.06787,0,3.75-1.68213,3.75-3.75v-10c0-2.06787-1.68213-3.75-3.75-3.75ZM20.25,18c0,1.24072-1.00928,2.25-2.25,2.25H6c-1.24072,0-2.25-1.00928-2.25-2.25v-6.25h16.5v6.25ZM20.25,10.25H3.75v-2.25c0-1.24072,1.00928-2.25,2.25-2.25h1.25v1.25c0,.41406.33594.75.75.75s.75-.33594.75-.75v-1.25h6.5v1.25c0,.41406.33594.75.75.75s.75-.33594.75-.75v-1.25h1.25c1.24072,0,2.25,1.00928,2.25,2.25v2.25ZM11.25,16v-2c0-.41406.33594-.75.75-.75s.75.33594.75.75v2c0,.41406-.33594.75-.75.75s-.75-.33594-.75-.75ZM12,18.75c.41418,0,.75-.33582.75-.75,0-.41425-.33582-.75-.75-.75s-.75.33575-.75.75c0,.41418.33582.75.75.75Z"></path></svg>